<mxfile host="65bd71144e">
    <diagram id="10n4Y9ewaYCOPc_UVVLa" name="project">
        <mxGraphModel dx="924" dy="528" grid="1" gridSize="10" guides="1" tooltips="1" connect="1" arrows="1" fold="1" page="1" pageScale="1" pageWidth="1600" pageHeight="1200" background="#ffffff" math="0" shadow="0">
            <root>
                <mxCell id="0"/>
                <mxCell id="1" parent="0"/>
                <mxCell id="2" value="" style="rounded=0;whiteSpace=wrap;html=1;fillStyle=solid;fillColor=#FFFFFF;" vertex="1" parent="1">
                    <mxGeometry x="40" y="40" width="1520" height="1120" as="geometry"/>
                </mxCell>
                <mxCell id="3" value="" style="rounded=0;whiteSpace=wrap;html=1;fillStyle=solid;fillColor=#33FF33;" vertex="1" parent="1">
                    <mxGeometry x="40" y="40" width="1520" height="80" as="geometry"/>
                </mxCell>
                <mxCell id="5" value="&lt;font style=&quot;font-size: 20px;&quot;&gt;Darwish Zain&lt;/font&gt;" style="rounded=0;whiteSpace=wrap;html=1;fillStyle=solid;fillColor=none;" vertex="1" parent="1">
                    <mxGeometry x="40" y="40" width="120" height="80" as="geometry"/>
                </mxCell>
            </root>
        </mxGraphModel>
    </diagram>
</mxfile>